<svg width="152" height="50" viewBox="0 0 152 50" fill="none" xmlns="http://www.w3.org/2000/svg">
<path d="M17.9557 24.9326C12.9643 29.1263 8.28773 33.6809 3.96367 38.5597C2.82994 37.0636 1.91688 35.4124 1.25244 33.6567C1.33859 33.5452 9.57111 29.2706 17.9557 24.9326Z" fill="#264FA1"/>
<path d="M33.9976 13.6646C30.9899 15.3445 25.0961 18.9426 17.9557 24.9326C9.56858 29.2706 1.33859 33.5478 1.25244 33.6567C3.00756 31.4185 4.7686 29.3576 6.53554 27.4741L33.9976 13.6646Z" fill="#2C85C6"/>
<path d="M17.9554 24.9325C26.7225 20.3943 35.662 15.7827 35.6645 15.7827C27.3761 21.3529 19.536 27.5629 12.2162 34.3559C7.46518 36.7656 3.97858 38.5495 3.96338 38.5545C8.28744 33.6757 12.964 29.1211 17.9554 24.9274" fill="#221E1F"/>
<path d="M0.37558 30.5728C-0.144911 27.9654 -0.124211 25.2789 0.436394 22.6799L13.3819 17.0015C8.55946 21.032 4.19751 25.5834 0.37558 30.5728Z" fill="#2C85C6"/>
<path d="M28.6409 29.3159C23.6543 33.4715 17.6237 38.6405 11.2232 44.4405C9.19704 43.4911 7.34982 42.1993 5.7627 40.622C5.7627 40.622 13.2579 37.5054 28.6409 29.3159Z" fill="#32366A"/>
<path d="M11.2231 44.4384C17.6211 38.6409 23.6543 33.4718 28.6409 29.3137C31.7187 27.6769 35.1107 25.8322 38.8169 23.7798C34.7627 27.3019 27.5716 33.4997 17.1575 42.3302L11.2231 44.4384Z" fill="#221E1F"/>
<path d="M5.7627 40.6224C7.93675 38.4103 10.1007 36.3148 12.2164 34.3612C21.8249 29.486 36.5998 22.0365 38.3152 21.4512C35.9942 23.2908 32.6571 25.9767 28.6486 29.3061C13.2655 37.4956 5.77283 40.6122 5.7703 40.6122" fill="#264FA1"/>
<path d="M17.1577 42.3302C27.5744 33.4997 34.763 27.3019 38.8172 23.7798C39.2551 26.6084 39.0647 29.4987 38.2597 32.2454C37.966 33.2345 37.5984 34.2 37.16 35.134C37.1119 35.1796 37.0587 35.2227 37.008 35.2632L17.1577 42.3302Z" fill="#2C85C6"/>
<path d="M13.5771 45.3605L17.1575 42.3199L37.0103 35.2529C33.5541 38.2936 29.3454 41.8055 24.3081 45.6823C20.9286 46.5396 17.3808 46.4731 14.0358 45.4897L13.5771 45.3504" fill="#32366A"/>
<path d="M6.53531 27.474L0.375488 30.5754C4.1951 25.5849 8.5554 21.0326 13.3767 17.0015L29.449 9.94727C24.4295 12.4355 15.6293 17.706 6.54038 27.474" fill="#221E1F"/>
<path d="M6.53564 27.474C15.6246 17.706 24.4247 12.4355 29.4443 9.94727C31.1455 10.9461 32.6837 12.1997 34.0053 13.6644L6.53564 27.474Z" fill="#6BBCE9"/>
<path d="M35.665 15.7852C36.8407 17.5208 37.7328 19.4324 38.3078 21.4483C36.6 22.0362 21.8377 29.4858 12.209 34.371C19.5272 27.5754 27.3674 21.3644 35.6574 15.7953" fill="#2C85C6"/>
<path d="M13.3742 17.0013L0.428711 22.6822C0.435223 22.6546 0.440297 22.6267 0.443913 22.5986C6.19072 15.0452 15.4621 8.07704 20.8288 5.09722C23.1473 4.90971 22.638 7.33462 25.0021 8.02636C25.4126 8.14545 24.5815 9.03991 23.1271 9.4732C20.1396 11.4293 18.3127 12.8965 13.3742 17.0013Z" fill="#6BBCE9"/>
<path d="M26.9179 5.34827C26.6772 5.23144 26.4766 5.0459 26.3413 4.81509C26.2061 4.58427 26.1423 4.31855 26.1581 4.0515C26.1738 3.78445 26.2683 3.52805 26.4297 3.31471C26.5911 3.10137 26.8121 2.94066 27.0648 2.85288C27.3175 2.76511 27.5906 2.75421 27.8495 2.82156C28.1084 2.88892 28.3415 3.03151 28.5194 3.23131C28.6973 3.43112 28.8119 3.67917 28.8489 3.94412C28.8859 4.20907 28.8435 4.47902 28.727 4.71988C28.6496 4.88004 28.5414 5.02336 28.4085 5.14165C28.2757 5.25993 28.1208 5.35086 27.9528 5.40923C27.7847 5.4676 27.6068 5.49225 27.4292 5.4818C27.2517 5.47134 27.0779 5.42596 26.9179 5.34827ZM33.1106 1.58042C33.1341 1.50006 33.1414 1.41584 33.132 1.33264C33.1226 1.24944 33.0968 1.16894 33.056 1.09583C33.0152 1.02272 32.9603 0.958468 32.8944 0.906806C32.8285 0.855144 32.753 0.817108 32.6723 0.794921C30.4703 0.158922 28.3191 -0.347852 26.1957 0.303351C25.0668 0.671017 24.0269 1.26992 23.1424 2.06185C21.5841 1.71471 18.6777 3.0754 18.6777 3.0754C18.6777 3.0754 19.1845 3.81022 19.6685 4.4741C19.9345 4.83644 20.1955 5.1709 20.3729 5.36348C20.1499 5.74102 19.9472 6.1059 19.7724 6.46064C19.7278 6.55273 19.7059 6.65414 19.7086 6.75641C19.7112 6.85868 19.7383 6.95884 19.7876 7.0485L20.9734 9.18708C21.0138 9.26007 21.0685 9.32417 21.1343 9.37554C21.2 9.42691 21.2754 9.46451 21.356 9.48608C21.394 9.48608 22.2708 9.57476 22.7142 9.57983C22.7578 9.74302 22.8103 9.90373 22.8713 10.0613C23.1804 10.9253 23.7581 12.2328 23.7581 12.2328C23.7581 12.2328 26.4567 10.492 26.9888 8.98944C28.1273 8.65407 29.1846 8.08829 30.0953 7.32722C31.7753 5.87532 32.5076 3.68606 33.1106 1.57028" fill="#6BBCE9"/>
<path d="M48.9368 46.615L48.4681 45.2518C48.3591 44.9401 48.2932 44.6563 48.2147 44.3801H48.1995C48.126 44.6639 48.0475 44.9528 47.9461 45.2416L47.5052 46.615H48.9368ZM47.3735 47.0989L46.8667 48.5965H46.2383L47.8549 43.8252H48.5973L50.2266 48.5965H49.5728L49.0661 47.0989H47.3735Z" fill="white"/>
<path d="M52.3375 46.1813C52.5035 46.2199 52.6739 46.2369 52.8443 46.232C53.5892 46.232 54.0428 45.8721 54.0428 45.2184C54.0428 44.5647 53.5943 44.2834 52.9152 44.2834C52.7198 44.2782 52.5244 44.2943 52.3324 44.3316L52.3375 46.1813ZM51.7268 43.8831C52.1173 43.8206 52.5122 43.7901 52.9076 43.7918C53.3866 43.7551 53.8622 43.8968 54.243 44.1897C54.3814 44.3143 54.4906 44.4679 54.5629 44.6396C54.6351 44.8113 54.6687 44.9968 54.661 45.1829C54.6706 45.3679 54.643 45.5528 54.5799 45.7269C54.5168 45.901 54.4195 46.0606 54.2936 46.1965C54.0987 46.3778 53.8692 46.518 53.6189 46.6085C53.3685 46.6991 53.1025 46.7382 52.8367 46.7235C52.6667 46.7313 52.4965 46.7177 52.3299 46.683V48.5935H51.7192L51.7268 43.8831Z" fill="white"/>
<path d="M56.7389 46.8478C56.0573 46.8351 55.2844 46.9542 55.2844 47.6206C55.2786 47.6993 55.2895 47.7782 55.3165 47.8523C55.3436 47.9263 55.3861 47.9938 55.4412 48.0501C55.4964 48.1064 55.5629 48.1504 55.6363 48.179C55.7098 48.2076 55.7885 48.2203 55.8672 48.2161C56.0482 48.2195 56.2257 48.1657 56.3745 48.0624C56.5232 47.9592 56.6356 47.8117 56.6958 47.6409C56.7174 47.5763 56.7293 47.5088 56.7313 47.4407L56.7389 46.8478ZM56.8301 48.5962L56.7819 48.1629H56.7591C56.6376 48.3251 56.4789 48.4558 56.2963 48.544C56.1138 48.6322 55.9128 48.6753 55.7101 48.6697C55.5754 48.6791 55.4402 48.6606 55.313 48.6152C55.1858 48.5698 55.0694 48.4986 54.971 48.406C54.8727 48.3134 54.7947 48.2014 54.7418 48.0772C54.6888 47.9529 54.6622 47.819 54.6636 47.684C54.6636 46.8554 55.3984 46.4044 56.7237 46.4171V46.3461C56.737 46.24 56.726 46.1322 56.6917 46.031C56.6573 45.9297 56.6004 45.8375 56.5253 45.7614C56.4502 45.6853 56.3588 45.6272 56.2579 45.5916C56.1571 45.5559 56.0495 45.5436 55.9432 45.5555C55.6291 45.5565 55.3213 45.6442 55.0538 45.8089L54.9119 45.3984C55.2517 45.1951 55.6411 45.0899 56.037 45.0944C57.0835 45.0944 57.3394 45.8089 57.3394 46.4981V47.7651C57.3348 48.0397 57.3526 48.3143 57.3926 48.586L56.8301 48.5962Z" fill="white"/>
<path d="M57.9904 46.24C57.9904 45.8346 57.9904 45.4798 57.96 45.1707H58.5047L58.5275 45.8447H58.5605C58.615 45.633 58.7365 45.4446 58.9068 45.3076C59.0771 45.1707 59.2872 45.0924 59.5056 45.0845C59.5655 45.0836 59.6253 45.0913 59.683 45.1073V45.6952C59.6123 45.6797 59.54 45.6729 59.4676 45.6749C59.2554 45.684 59.0538 45.77 58.9003 45.9169C58.7469 46.0638 58.6522 46.2615 58.634 46.4731C58.6173 46.5694 58.608 46.6668 58.6061 46.7645V48.5914H57.9904V46.24Z" fill="white"/>
<path d="M60.8716 44.1875V45.1706H61.7635V45.647H60.8716V47.4942C60.8716 47.9174 60.9957 48.1555 61.3404 48.1555C61.4616 48.1588 61.5827 48.1452 61.7002 48.115L61.728 48.5838C61.5507 48.642 61.3648 48.6703 61.1782 48.6674C61.0536 48.6753 60.9287 48.6556 60.8126 48.6096C60.6966 48.5636 60.5921 48.4925 60.5067 48.4013C60.3268 48.2214 60.266 47.9173 60.266 47.5145V45.647H59.7339V45.1706H60.266V44.3497L60.8716 44.1875Z" fill="white"/>
<path d="M62.1079 46.0981C62.1079 45.7458 62.1079 45.4544 62.0825 45.1707H62.6349L62.6678 45.7382H62.683C62.7955 45.538 62.9603 45.3721 63.1599 45.2583C63.3594 45.1445 63.5861 45.087 63.8157 45.0921C64.292 45.0921 65.0269 45.3759 65.0269 46.5465V48.5964H64.4035V46.6251C64.4035 46.0727 64.1983 45.6116 63.6104 45.6116C63.422 45.6142 63.2394 45.6772 63.0894 45.7912C62.9394 45.9052 62.8298 46.0642 62.7768 46.245C62.7463 46.3391 62.7309 46.4375 62.7312 46.5364V48.5964H62.1079V46.0981Z" fill="white"/>
<path d="M67.8573 46.5462C67.8573 46.156 67.7002 45.5327 66.9984 45.5327C66.3674 45.5327 66.0938 46.1155 66.0406 46.5462H67.8573ZM66.033 46.9998C66.0482 47.8385 66.5853 48.1856 67.2087 48.1856C67.5345 48.1964 67.8588 48.1358 68.1589 48.0083L68.2602 48.4542C67.9001 48.604 67.5125 48.6765 67.1225 48.6671C66.0684 48.6671 65.4375 47.9728 65.4375 46.939C65.4375 45.9052 66.0482 45.0918 67.0465 45.0918C68.1639 45.0918 68.4604 46.0775 68.4604 46.7084C68.4596 46.8059 68.4528 46.9032 68.4401 46.9998H66.033Z" fill="white"/>
<path d="M68.881 46.24C68.881 45.8345 68.881 45.4798 68.8506 45.1707H69.3928L69.4182 45.8447H69.446C69.5025 45.6336 69.6249 45.446 69.7953 45.3093C69.9658 45.1726 70.1754 45.0938 70.3937 45.0845C70.4536 45.0838 70.5133 45.0915 70.5711 45.1073V45.6952C70.4502 45.6683 70.3249 45.6677 70.2038 45.6935C70.0826 45.7193 69.9684 45.7708 69.8689 45.8446C69.7695 45.9184 69.687 46.0127 69.6272 46.1211C69.5673 46.2295 69.5315 46.3496 69.5221 46.4731C69.5054 46.5694 69.4961 46.6668 69.4942 46.7645V48.5914H68.881V46.24Z" fill="white"/>
<path d="M72.3702 46.8907C72.3702 47.6509 72.8009 48.2109 73.4091 48.2109C74.0172 48.2109 74.453 47.6483 74.453 46.873C74.453 46.2953 74.1616 45.563 73.4192 45.563C72.6768 45.563 72.3702 46.2395 72.3702 46.8907ZM75.089 46.8552C75.089 48.1222 74.2098 48.6746 73.3812 48.6746C72.4563 48.6746 71.7393 47.9955 71.7393 46.9009C71.7393 45.7581 72.4994 45.0815 73.4395 45.0815C74.3795 45.0815 75.089 45.7961 75.089 46.8552Z" fill="white"/>
<path d="M75.5859 48.596V45.6441H75.1045V45.1702H75.5859V45.0106C75.5688 44.7946 75.5949 44.5773 75.6628 44.3715C75.7307 44.1657 75.8389 43.9755 75.9812 43.8121C76.2088 43.6026 76.5081 43.4883 76.8174 43.4928C76.9989 43.4949 77.1787 43.5275 77.3495 43.5891L77.2659 44.0731C77.1395 44.0191 77.0029 43.9931 76.8655 43.997C76.3385 43.997 76.2017 44.4633 76.2017 44.9853V45.1702H77.0277V45.6441H76.2017V48.596H75.5859Z" fill="white"/>
<path d="M78.3199 47.846C78.6521 48.0457 79.0319 48.1525 79.4196 48.1551C80.0556 48.1551 80.4205 47.8258 80.4205 47.3443C80.4205 46.8629 80.1671 46.6424 79.5235 46.3916C78.743 46.1205 78.2565 45.715 78.2565 45.0436C78.2565 44.2986 78.8723 43.7462 79.7997 43.7462C80.1645 43.7345 80.5263 43.8156 80.8512 43.9819L80.6814 44.4886C80.4039 44.338 80.0926 44.2604 79.7768 44.2631C79.1282 44.2631 78.8799 44.6534 78.8799 44.9777C78.8799 45.4236 79.1713 45.6441 79.8301 45.8975C80.6384 46.2041 81.0463 46.5994 81.0463 47.2987C81.0463 47.998 80.499 48.6721 79.374 48.6721C78.9484 48.6775 78.529 48.5709 78.1577 48.3629L78.3199 47.846Z" fill="white"/>
<path d="M82.1333 47.2C82.1342 47.2854 82.1444 47.3703 82.1637 47.4534C82.2153 47.6615 82.3352 47.8463 82.5043 47.9781C82.6733 48.11 82.8817 48.1813 83.0961 48.1807C83.7524 48.1807 84.135 47.6409 84.135 46.8554C84.135 46.1688 83.7752 45.5885 83.1215 45.5885C82.9022 45.5935 82.6907 45.6706 82.5198 45.8081C82.3489 45.9455 82.2282 46.1356 82.1763 46.3487C82.1538 46.4314 82.1402 46.5164 82.1358 46.6021L82.1333 47.2ZM81.5175 46.2904C81.5175 45.852 81.5049 45.4948 81.4922 45.1704H82.0496L82.0775 45.7583C82.2019 45.5472 82.3811 45.3738 82.5962 45.2564C82.8112 45.1391 83.054 45.0822 83.2988 45.0919C84.1249 45.0919 84.7482 45.7938 84.7482 46.8352C84.7482 48.0641 83.988 48.6773 83.1899 48.6773C82.9827 48.6848 82.7771 48.6392 82.5925 48.5447C82.408 48.4502 82.2508 48.3101 82.1358 48.1376V50H81.5201L81.5175 46.2904Z" fill="white"/>
<path d="M86.9956 46.8478C86.314 46.8352 85.5462 46.9543 85.5462 47.6207C85.5398 47.6998 85.5506 47.7794 85.5778 47.8541C85.6049 47.9287 85.6479 47.9966 85.7037 48.0531C85.7595 48.1096 85.8268 48.1534 85.9011 48.1816C85.9754 48.2097 86.0548 48.2215 86.1341 48.2161C86.3153 48.2203 86.4931 48.1668 86.642 48.0635C86.7909 47.9601 86.9031 47.8122 86.9626 47.6409C86.9846 47.5765 86.9958 47.5089 86.9956 47.4408V46.8478ZM87.0893 48.5962L87.0386 48.1629H87.0336C86.9106 48.3243 86.7513 48.4543 86.5685 48.5424C86.3858 48.6304 86.1848 48.6741 85.982 48.6697C85.8474 48.6792 85.7123 48.6606 85.5852 48.6152C85.4582 48.5698 85.3419 48.4985 85.2438 48.4059C85.1457 48.3133 85.0679 48.2013 85.0152 48.077C84.9626 47.9528 84.9363 47.819 84.9381 47.684C84.9381 46.8555 85.6729 46.4044 86.9981 46.4171V46.3461C87.0114 46.24 87.0005 46.1323 86.9661 46.031C86.9318 45.9297 86.8749 45.8376 86.7998 45.7615C86.7246 45.6853 86.6332 45.6273 86.5324 45.5916C86.4315 45.556 86.3239 45.5436 86.2177 45.5556C85.902 45.5573 85.5928 45.6449 85.3232 45.809L85.1864 45.3985C85.5259 45.1946 85.9154 45.0893 86.3114 45.0944C87.3604 45.0944 87.6088 45.809 87.6088 46.4982V47.7651C87.6044 48.0399 87.6239 48.3146 87.667 48.5861L87.0893 48.5962Z" fill="white"/>
<path d="M88.9724 44.1875V45.1706H89.8643V45.647H88.9724V47.4942C88.9724 47.9174 89.0914 48.1555 89.4386 48.1555C89.5607 48.1586 89.6826 48.1449 89.8009 48.115L89.8288 48.5838C89.6506 48.6422 89.4639 48.6705 89.2764 48.6674C89.1515 48.6745 89.0266 48.6544 88.9102 48.6084C88.7938 48.5625 88.6888 48.4918 88.6024 48.4013C88.4149 48.1459 88.3299 47.8295 88.3642 47.5145V45.647H87.8296V45.1706H88.3642V44.3497L88.9724 44.1875Z" fill="white"/>
<path d="M90.2135 45.1706H90.8343V48.5964H90.211L90.2135 45.1706ZM90.9053 44.2052C90.9079 44.2571 90.8995 44.309 90.8806 44.3575C90.8617 44.4059 90.8327 44.4498 90.7956 44.4862C90.7585 44.5226 90.714 44.5507 90.6652 44.5687C90.6165 44.5866 90.5644 44.594 90.5125 44.5904C90.4621 44.5911 90.4121 44.5816 90.3654 44.5624C90.3188 44.5432 90.2766 44.5147 90.2413 44.4787C90.206 44.4427 90.1783 44.3998 90.1601 44.3528C90.1418 44.3058 90.1333 44.2556 90.135 44.2052C90.1339 44.1538 90.1433 44.1027 90.1626 44.055C90.1819 44.0074 90.2106 43.9641 90.2471 43.9278C90.2836 43.8916 90.327 43.8631 90.3748 43.8442C90.4226 43.8252 90.4738 43.8162 90.5252 43.8175C90.5762 43.8161 90.6269 43.8252 90.6741 43.8442C90.7214 43.8633 90.7642 43.8919 90.7999 43.9283C90.8356 43.9647 90.8634 44.0081 90.8815 44.0558C90.8997 44.1034 90.9077 44.1543 90.9053 44.2052Z" fill="white"/>
<path d="M93.3204 46.8478C92.6388 46.8352 91.8685 46.9543 91.8685 47.6207C91.8621 47.6998 91.8729 47.7794 91.9001 47.8541C91.9273 47.9287 91.9702 47.9966 92.026 48.0531C92.0818 48.1096 92.1491 48.1534 92.2234 48.1815C92.2977 48.2097 92.3771 48.2215 92.4564 48.2161C92.6373 48.2205 92.8149 48.1671 92.9635 48.0637C93.112 47.9602 93.2237 47.8122 93.2824 47.6409C93.306 47.5768 93.3188 47.5091 93.3204 47.4408V46.8478ZM93.4091 48.5962L93.366 48.1629H93.3407C93.2194 48.3248 93.0611 48.4553 92.879 48.5434C92.6969 48.6316 92.4964 48.6749 92.2942 48.6697C92.1593 48.6795 92.0238 48.6612 91.8963 48.616C91.7688 48.5708 91.652 48.4996 91.5534 48.407C91.4549 48.3143 91.3766 48.2023 91.3235 48.0778C91.2704 47.9534 91.2438 47.8193 91.2452 47.684C91.2452 46.8554 91.98 46.4044 93.3052 46.4171V46.3461C93.319 46.2402 93.3084 46.1324 93.2744 46.0311C93.2403 45.9298 93.1837 45.8376 93.1087 45.7614C93.0338 45.6853 92.9425 45.6271 92.8418 45.5915C92.741 45.5558 92.6335 45.5435 92.5273 45.5556C92.2124 45.5566 91.9038 45.6442 91.6354 45.809L91.4935 45.3985C91.8331 45.1948 92.2226 45.0895 92.6185 45.0944C93.665 45.0944 93.9209 45.809 93.9209 46.4982V47.7651C93.9158 48.0398 93.9345 48.3145 93.9767 48.5861L93.4091 48.5962Z" fill="white"/>
<path d="M98.4361 46.0981C98.4361 45.7458 98.4361 45.4544 98.4082 45.1707H98.9606L98.9935 45.7382H99.0087C99.1212 45.538 99.286 45.3721 99.4855 45.2583C99.685 45.1445 99.9117 45.087 100.141 45.0921C100.615 45.0921 101.35 45.3759 101.35 46.5465V48.5964H100.727V46.6251C100.727 46.0727 100.524 45.6116 99.9336 45.6116C99.7455 45.6144 99.5633 45.6774 99.4137 45.7914C99.2641 45.9054 99.155 46.0644 99.1025 46.245C99.0708 46.3388 99.0554 46.4374 99.0569 46.5364V48.5964H98.4361V46.0981Z" fill="white"/>
<path d="M95.1976 43.5688H94.5718V48.596H95.1976V43.5688Z" fill="white"/>
<path d="M97.6733 43.8276H97.0601V48.5989H97.6733V43.8276Z" fill="white"/>
<path d="M102.08 48.5961V45.6441H101.601V45.1703H102.08V45.0106C102.063 44.7942 102.09 44.5767 102.159 44.3708C102.227 44.1649 102.337 43.9749 102.48 43.8121C102.706 43.602 103.003 43.4876 103.311 43.4929C103.493 43.4945 103.673 43.5271 103.844 43.5891L103.76 44.0731C103.635 44.0187 103.5 43.9928 103.365 43.9971C102.835 43.9971 102.701 44.4633 102.701 44.9853V45.1703H103.529V45.6441H102.701V48.5961H102.08Z" fill="white"/>
<path d="M104.026 46.8907C104.026 47.6509 104.452 48.2109 105.065 48.2109C105.678 48.2109 106.104 47.6483 106.104 46.873C106.104 46.2953 105.815 45.563 105.09 45.563C104.366 45.563 104.036 46.2395 104.036 46.8907M106.753 46.8552C106.753 48.1222 105.876 48.6746 105.047 48.6746C104.115 48.6746 103.405 47.9955 103.405 46.9009C103.405 45.7581 104.165 45.0815 105.103 45.0815C106.089 45.0815 106.753 45.7961 106.753 46.8552Z" fill="white"/>
<path d="M107.173 46.2399C107.173 45.8345 107.173 45.4798 107.143 45.1707H107.69L107.713 45.8447H107.738C107.797 45.6337 107.92 45.4467 108.091 45.3102C108.262 45.1737 108.472 45.0947 108.691 45.0845C108.75 45.0839 108.809 45.0916 108.866 45.1073V45.6952C108.795 45.6797 108.723 45.6729 108.65 45.6749C108.438 45.684 108.237 45.7701 108.084 45.9171C107.931 46.064 107.837 46.2617 107.819 46.4731C107.802 46.5693 107.793 46.6668 107.791 46.7645V48.5914H107.173V46.2399Z" fill="white"/>
<path d="M109.165 46.098C109.165 45.7458 109.165 45.4544 109.134 45.1706H109.682L109.712 45.7229H109.732C109.834 45.5275 109.989 45.3647 110.179 45.2531C110.369 45.1415 110.586 45.0857 110.807 45.092C111.02 45.0899 111.229 45.1554 111.404 45.2792C111.578 45.4029 111.709 45.5787 111.777 45.7812H111.792C111.887 45.6054 112.018 45.451 112.175 45.3277C112.395 45.1657 112.662 45.0827 112.935 45.092C113.391 45.092 114.06 45.3935 114.06 46.5794V48.6065H113.452V46.6681C113.452 46.0093 113.214 45.614 112.71 45.614C112.544 45.6215 112.385 45.6793 112.253 45.7799C112.121 45.8804 112.023 46.0188 111.972 46.1765C111.942 46.2785 111.926 46.3843 111.924 46.4907V48.6065H111.316V46.5515C111.316 46.0093 111.075 45.614 110.601 45.614C110.426 45.6262 110.258 45.6927 110.122 45.8044C109.986 45.9161 109.888 46.0674 109.841 46.2373C109.807 46.335 109.79 46.4379 109.791 46.5414V48.6065H109.182L109.165 46.098Z" fill="white"/>
<path d="M116.52 46.8479C115.841 46.8352 115.069 46.9543 115.069 47.6207C115.063 47.7006 115.074 47.7808 115.103 47.8558C115.131 47.9308 115.174 47.9988 115.231 48.0553C115.288 48.1118 115.356 48.1555 115.431 48.1832C115.506 48.211 115.587 48.2222 115.667 48.2162C115.847 48.2204 116.024 48.1669 116.172 48.0635C116.321 47.96 116.432 47.812 116.49 47.641C116.512 47.5765 116.525 47.5091 116.528 47.4408L116.52 46.8479ZM116.614 48.5963L116.564 48.163H116.543C116.421 48.3235 116.262 48.453 116.08 48.541C115.899 48.629 115.699 48.6731 115.497 48.6697C115.362 48.6796 115.227 48.6613 115.099 48.6161C114.972 48.5708 114.855 48.4996 114.757 48.4069C114.658 48.3143 114.58 48.2022 114.528 48.0777C114.475 47.9533 114.449 47.8192 114.45 47.6841C114.45 46.8555 115.183 46.4045 116.503 46.4171V46.3462C116.517 46.2404 116.507 46.1327 116.473 46.0314C116.439 45.93 116.383 45.8378 116.308 45.7615C116.233 45.6853 116.142 45.6271 116.042 45.5914C115.941 45.5557 115.833 45.5435 115.727 45.5556C115.412 45.5562 115.104 45.6439 114.835 45.809L114.696 45.3985C115.036 45.1939 115.427 45.0886 115.824 45.0945C116.87 45.0945 117.126 45.809 117.126 46.4982V47.7652C117.12 48.0398 117.138 48.3145 117.179 48.5861L116.614 48.5963Z" fill="white"/>
<path d="M118.494 44.1875V45.1706H119.389V45.647H118.494V47.4942C118.494 47.9174 118.616 48.1555 118.963 48.1555C119.084 48.1584 119.205 48.1448 119.323 48.115L119.351 48.5838C119.173 48.6426 118.986 48.6709 118.798 48.6674C118.674 48.6741 118.55 48.6537 118.435 48.6078C118.319 48.5619 118.215 48.4914 118.129 48.4013C117.949 48.2214 117.891 47.9173 117.891 47.5145V45.647H117.356V45.1706H117.891V44.3497L118.494 44.1875Z" fill="white"/>
<path d="M119.738 45.1703H120.356V48.5961H119.738V45.1703ZM120.427 44.2049C120.43 44.2568 120.422 44.3087 120.403 44.3572C120.384 44.4056 120.355 44.4495 120.318 44.4859C120.281 44.5223 120.236 44.5504 120.187 44.5684C120.139 44.5863 120.086 44.5937 120.035 44.5901C119.984 44.5911 119.934 44.5818 119.887 44.5628C119.84 44.5438 119.797 44.5153 119.762 44.4793C119.726 44.4432 119.698 44.4003 119.68 44.3531C119.661 44.306 119.653 44.2555 119.655 44.2049C119.653 44.1536 119.662 44.1026 119.681 44.0549C119.7 44.0072 119.729 43.9639 119.765 43.9277C119.801 43.8914 119.845 43.8629 119.892 43.8439C119.94 43.8249 119.991 43.8158 120.042 43.8172C120.094 43.8151 120.145 43.8236 120.193 43.8424C120.241 43.8611 120.284 43.8896 120.32 43.9261C120.357 43.9626 120.385 44.0062 120.403 44.0542C120.422 44.1022 120.43 44.1535 120.427 44.2049Z" fill="white"/>
<path d="M121.421 46.8907C121.421 47.6509 121.849 48.2109 122.46 48.2109C123.071 48.2109 123.499 47.6483 123.499 46.873C123.499 46.2953 123.21 45.563 122.485 45.563C121.761 45.563 121.434 46.2395 121.434 46.8907M124.147 46.8552C124.147 48.1222 123.273 48.6746 122.442 48.6746C121.515 48.6746 120.803 47.9955 120.803 46.9009C120.803 45.7581 121.55 45.0815 122.503 45.0815C123.456 45.0815 124.147 45.7961 124.147 46.8552Z" fill="white"/>
<path d="M124.57 46.0977C124.57 45.7455 124.57 45.4541 124.542 45.1703H125.097L125.128 45.7379H125.146C125.257 45.5369 125.421 45.3703 125.62 45.2564C125.819 45.1424 126.046 45.0855 126.276 45.0918C126.752 45.0918 127.487 45.3756 127.487 46.5462V48.5961H126.866V46.6248C126.866 46.0724 126.658 45.6112 126.07 45.6112C125.882 45.6149 125.7 45.6782 125.549 45.792C125.399 45.9058 125.289 46.0643 125.234 46.2447C125.206 46.3391 125.192 46.4374 125.194 46.5361V48.5961H124.57V46.0977Z" fill="white"/>
<path d="M129.932 48.1276C130.1 48.1511 130.269 48.1604 130.439 48.1555C131.072 48.1555 131.663 47.9249 131.663 47.2306C131.663 46.5794 131.103 46.3108 130.431 46.3108H129.924L129.932 48.1276ZM129.932 45.8471H130.487C131.138 45.8471 131.521 45.5051 131.521 45.0464C131.521 44.4864 131.097 44.2685 130.474 44.2685C130.292 44.2629 130.111 44.2774 129.932 44.3116V45.8471ZM129.314 43.8935C129.685 43.8242 130.061 43.7911 130.439 43.7947C131.057 43.7947 131.452 43.9011 131.746 44.1393C131.877 44.2392 131.981 44.3699 132.049 44.5198C132.117 44.6697 132.147 44.834 132.136 44.9983C132.129 45.2347 132.047 45.4628 131.903 45.6499C131.758 45.837 131.558 45.9734 131.331 46.0397V46.0524C131.608 46.1096 131.857 46.26 132.037 46.4785C132.216 46.697 132.316 46.9705 132.319 47.2534C132.321 47.4315 132.285 47.6079 132.215 47.7716C132.145 47.9352 132.041 48.0823 131.911 48.2036C131.579 48.5051 131.039 48.6496 130.264 48.6496C129.945 48.6512 129.626 48.6334 129.309 48.5964L129.314 43.8935Z" fill="white"/>
<path d="M135.646 47.6637C135.646 48.0159 135.646 48.3276 135.671 48.5962H135.114L135.084 48.0413H135.066C134.951 48.2376 134.786 48.4 134.588 48.5117C134.39 48.6234 134.166 48.6806 133.938 48.6773C133.398 48.6773 132.755 48.3783 132.755 47.1722V45.1704H133.378V47.0657C133.378 47.7195 133.576 48.1553 134.138 48.1553C134.315 48.1527 134.488 48.0972 134.633 47.9961C134.778 47.895 134.89 47.7528 134.954 47.5877C134.992 47.4863 135.011 47.3791 135.013 47.271V45.1704H135.638L135.646 47.6637Z" fill="white"/>
<path d="M136.239 47.9577C136.484 48.114 136.766 48.2015 137.057 48.2111C137.513 48.2111 137.723 47.978 137.723 47.7043C137.723 47.4307 137.546 47.2457 137.087 47.0709C136.474 46.853 136.183 46.5134 136.183 46.1029C136.183 45.5505 136.629 45.0894 137.361 45.0894C137.656 45.0876 137.946 45.1609 138.205 45.3022L138.05 45.7558C137.839 45.6262 137.596 45.5586 137.348 45.5607C136.984 45.5607 136.778 45.771 136.778 46.0244C136.778 46.2778 136.984 46.4323 137.427 46.6046C138.017 46.8327 138.327 47.1317 138.327 47.6385C138.327 48.2365 137.86 48.6647 137.044 48.6647C136.709 48.67 136.377 48.5888 136.082 48.429L136.239 47.9577Z" fill="white"/>
<path d="M138.778 45.1707H139.396V48.5965H138.778V45.1707ZM139.469 44.2053C139.469 44.3081 139.428 44.4067 139.356 44.4794C139.283 44.5521 139.184 44.593 139.082 44.593C138.979 44.593 138.88 44.5521 138.807 44.4794C138.735 44.4067 138.694 44.3081 138.694 44.2053C138.693 44.1539 138.702 44.1028 138.722 44.0551C138.741 44.0074 138.77 43.9642 138.806 43.9279C138.843 43.8917 138.886 43.8632 138.934 43.8443C138.982 43.8253 139.033 43.8162 139.084 43.8176C139.135 43.8158 139.187 43.8246 139.234 43.8435C139.282 43.8624 139.325 43.8909 139.361 43.9273C139.398 43.9637 139.426 44.0072 139.444 44.0551C139.463 44.1029 139.471 44.154 139.469 44.2053Z" fill="white"/>
<path d="M140.075 46.0981C140.075 45.7458 140.075 45.4544 140.047 45.1707H140.597L140.633 45.7382H140.648C140.76 45.538 140.925 45.3721 141.125 45.2583C141.324 45.1445 141.551 45.087 141.781 45.0921C142.257 45.0921 142.992 45.3759 142.992 46.5465V48.5964H142.366V46.6251C142.366 46.0727 142.166 45.6116 141.575 45.6116C141.387 45.6145 141.204 45.6775 141.054 45.7914C140.903 45.9053 140.793 46.0642 140.739 46.245C140.712 46.3397 140.698 46.4378 140.699 46.5364V48.5964H140.075V46.0981Z" fill="white"/>
<path d="M145.819 46.5462C145.819 46.156 145.657 45.5327 144.955 45.5327C144.327 45.5327 144.053 46.1155 144 46.5462H145.819ZM143.997 46.9998C143.997 47.8385 144.55 48.1856 145.168 48.1856C145.494 48.1972 145.818 48.1366 146.118 48.0083L146.222 48.4542C145.862 48.6035 145.474 48.676 145.084 48.6671C144.03 48.6671 143.399 47.9728 143.399 46.939C143.399 45.9052 144.005 45.0918 145.008 45.0918C146.126 45.0918 146.422 46.0775 146.422 46.7084C146.422 46.8351 146.407 46.9314 146.405 46.9998H143.997Z" fill="white"/>
<path d="M146.757 47.9577C147.003 48.1144 147.286 48.202 147.578 48.2111C148.034 48.2111 148.247 47.978 148.247 47.7043C148.247 47.4307 148.072 47.2457 147.606 47.0709C146.993 46.8529 146.701 46.5134 146.701 46.1029C146.701 45.5505 147.147 45.0894 147.884 45.0894C148.179 45.088 148.469 45.1612 148.728 45.3022L148.571 45.7558C148.361 45.6273 148.118 45.5597 147.872 45.5607C147.502 45.5607 147.299 45.771 147.299 46.0244C147.299 46.2778 147.502 46.4323 147.95 46.6046C148.541 46.8327 148.847 47.1317 148.847 47.6384C148.847 48.2364 148.381 48.6647 147.565 48.6647C147.231 48.6707 146.901 48.5895 146.607 48.429L146.757 47.9577Z" fill="white"/>
<path d="M149.212 47.9578C149.457 48.1156 149.74 48.2032 150.031 48.2111C150.484 48.2111 150.695 47.978 150.695 47.7044C150.695 47.4307 150.52 47.2457 150.061 47.0709C149.443 46.853 149.154 46.5135 149.154 46.103C149.154 45.5506 149.6 45.0894 150.337 45.0894C150.63 45.0868 150.918 45.1602 151.173 45.3023L151.027 45.7558C150.812 45.6275 150.567 45.56 150.317 45.5607C149.955 45.5607 149.749 45.771 149.749 46.0244C149.749 46.2778 149.955 46.4324 150.401 46.6047C150.991 46.8327 151.295 47.1317 151.295 47.6385C151.295 48.2365 150.829 48.6647 150.016 48.6647C149.68 48.6707 149.349 48.5895 149.055 48.4291L149.212 47.9578Z" fill="white"/>
<path d="M106.696 16.2466C102.409 16.2466 98.8109 19.979 98.8109 24.5044C98.8109 29.2276 102.313 32.9625 106.747 32.9625C111.085 32.9625 114.635 29.2276 114.635 24.6007C114.635 20.0246 111.087 16.239 106.696 16.239M106.696 39.0235C104.786 39.0518 102.889 38.7004 101.115 37.9896C99.3417 37.2788 97.727 36.2228 96.3649 34.883C95.0028 33.5431 93.9204 31.9461 93.1805 30.1845C92.4406 28.423 92.0579 26.532 92.0547 24.6213C92.0515 22.7107 92.4279 20.8184 93.1619 19.0544C93.8959 17.2904 94.973 15.6897 96.3307 14.3453C97.6883 13.0009 99.2994 11.9396 101.071 11.2229C102.842 10.5062 104.738 10.1485 106.648 10.1704C114.883 10.1704 121.241 16.5861 121.241 24.7984C121.241 32.5545 114.635 39.0235 106.696 39.0235Z" fill="#264FA1"/>
<path d="M134.268 20.7593C136.355 19.3134 137.399 17.9696 137.399 16.728C137.412 16.4047 137.353 16.0826 137.227 15.7844C137.102 15.4863 136.912 15.2193 136.672 15.0024C136.131 14.5526 135.441 14.3221 134.739 14.3563C134.398 14.3437 134.058 14.3999 133.738 14.5213C133.419 14.6427 133.128 14.827 132.882 15.0632C132.64 15.2952 132.451 15.5752 132.325 15.8851C132.198 16.195 132.139 16.5279 132.149 16.8623C132.149 17.7593 132.859 19.0591 134.268 20.7593ZM134.632 29.6633C134.536 29.5747 134.222 29.2402 133.695 28.6498C133.168 28.0594 132.742 27.6363 132.428 27.3499C130.607 28.7858 129.696 30.1524 129.694 31.4497C129.699 31.7704 129.776 32.0857 129.92 32.3725C130.063 32.6594 130.269 32.9103 130.523 33.1069C131.065 33.5797 131.764 33.8343 132.484 33.8214C133.57 33.8214 135.061 33.2386 136.956 32.073L134.632 29.6633ZM137.361 24.1091L141.801 28.7968L145.389 25.6852L148.726 29.1946C148.66 29.2858 148.112 29.8086 147.081 30.763C146.051 31.7175 145.429 32.2107 145.216 32.2428L151.237 38.5547H143.174L140.445 35.7674C137.884 37.0952 136.034 37.9677 134.893 38.3849C133.757 38.7986 132.556 39.0087 131.346 39.0057C129.882 38.9954 128.43 38.7385 127.051 38.2455C125.639 37.7757 124.415 36.8654 123.559 35.6483C122.727 34.4986 122.278 33.1152 122.277 31.6955C122.277 28.4758 124.612 25.7967 129.281 23.6581C127.222 21.4181 126.193 19.2027 126.195 17.0118C126.195 15.1722 127.011 13.5818 128.642 12.2405C130.274 10.8992 132.238 10.2278 134.534 10.2261C136.938 10.2261 138.96 10.8773 140.585 12.1848C142.209 13.4922 143.02 15.0962 143.02 16.9991C143.02 18.5802 142.338 19.9857 140.975 21.2154C139.839 22.2671 138.629 23.2359 137.354 24.1142" fill="#29664E"/>
<path d="M76.0571 21.958C76.0571 21.92 76.0571 21.8819 76.0394 21.8414H58.4899V21.9985L64.1809 27.4336H70.0291C69.9019 27.7805 69.7529 28.119 69.5831 28.4472C69.4767 28.6524 69.3677 28.8475 69.2512 29.0401C68.4007 30.3991 67.216 31.5172 65.8102 32.2878C64.4044 33.0583 62.8244 33.4555 61.2214 33.4414C56.0954 33.4414 51.9221 29.4759 51.9221 24.5982C51.9221 19.7206 56.0954 15.7551 61.2214 15.7551C63.479 15.7551 66.7452 16.1858 69.5299 18.7957C70.0367 17.4933 71.334 15.4383 72.5047 14.5287C69.3825 11.7803 65.3805 10.2389 61.2214 10.1831C52.8951 10.1831 46.1221 16.6571 46.1221 24.6084C46.1221 32.5596 52.8951 39.0362 61.2214 39.0362C63.2819 39.0448 65.3233 38.6397 67.2244 37.8449C69.1256 37.0502 70.8479 35.8819 72.2893 34.4094C72.3982 34.3004 72.5047 34.1839 72.6136 34.0648C74.1804 32.352 75.3035 30.2814 75.8848 28.0342C75.9178 27.9024 75.9507 27.7808 75.9811 27.6338C76.2058 26.6359 76.3197 25.6161 76.3207 24.5932C76.3185 23.7048 76.2294 22.8188 76.0546 21.9478" fill="#264FA1"/>
<path d="M76.9996 21.7019C78.0487 18.1747 80.7371 16.2389 84.662 16.2515C88.739 16.2515 91.4148 18.2052 92.251 21.7399L76.9996 21.7019ZM94.3591 35.1314C93.1606 33.8644 91.4883 30.7427 91.2425 29.5315C89.8336 31.3787 87.2998 32.97 84.7735 32.9649C80.8435 32.9649 77.9701 30.8567 77.1846 27.5222L98.4969 27.5729C98.68 26.741 98.765 25.8906 98.7503 25.039C98.7706 16.4821 92.7755 10.1981 84.5759 10.1779C82.665 10.16 80.7696 10.5224 79.0001 11.244C77.2306 11.9656 75.6223 13.032 74.2688 14.381C72.9153 15.73 71.8436 17.3348 71.1162 19.1019C70.3887 20.869 70.02 22.7632 70.0315 24.6741C70.0138 32.7318 76.5055 39.0386 84.9053 39.0386C88.7213 39.0386 92.2535 37.4448 94.3566 35.1339" fill="#264FA1"/>
</svg>
